<svg width="670" height="800" viewBox="0 0 670 800" fill="none" xmlns="http://www.w3.org/2000/svg">
<path fill-rule="evenodd" clip-rule="evenodd" d="M740.376 -70.9712C592.49 -118.771 468.791 -56.1544 307.155 70.195C213.143 143.873 41.0617 76.2842 7.52551 291.636C-28.2102 522.922 62.5033 648.764 297.259 733.402C532.015 817.94 711.796 904.203 833.847 627.35C1041.66 158.69 807.459 -49.5578 740.376 -70.9712Z" fill="#F8F9FF"/>
<path fill-rule="evenodd" clip-rule="evenodd" d="M656 421.365C656 421.365 665.57 409.201 673.089 411.228C680.607 413.255 699.747 459.176 706.578 484.823C713.41 510.47 721.615 534.799 718.2 560.446C713.41 598.359 692.228 609.104 679.92 597.649C675.14 592.884 674.453 580.112 672.401 572.61C669.673 561.865 666.257 557.101 666.257 557.101C666.257 557.101 673.776 484.215 670.35 467.996C666.934 451.776 656 421.365 656 421.365Z" fill="#E2603D"/>
<path fill-rule="evenodd" clip-rule="evenodd" d="M353.866 380.359C343.053 389.884 333.591 391.911 328.86 392.519C326.157 395.255 323.453 397.99 320.75 400.625C314.667 409.441 304.53 423.627 289.662 434.368C284.255 441.157 279.525 448.554 276.145 455.343C255.87 496.483 236.947 518.168 234.244 543.095C233.568 550.594 234.244 558.599 236.947 567.414C240.326 578.865 242.354 573.494 242.354 607.947C242.354 625.477 238.299 641.689 234.244 654.558C235.596 654.558 236.947 654.558 238.299 655.166C246.409 659.22 306.557 684.248 336.97 735.521C346.432 751.025 355.894 761.867 359.272 772C370.762 759.84 386.306 742.31 401.174 720.018C420.097 692.355 427.531 653.14 427.531 622.133C427.531 614.026 426.855 606.629 425.503 599.84C422.125 582.31 443.751 570.15 450.509 560.017C470.785 528.909 464.702 526.274 515.389 490.404C536.34 475.609 551.208 457.37 561.346 438.421C585 395.255 585 350.669 585 350.669C585 350.669 417.394 323.006 353.866 380.359Z" fill="#9AF4DC"/>
<path fill-rule="evenodd" clip-rule="evenodd" d="M355.937 772.353C352.605 762.236 343.277 751.411 333.948 735.933C303.962 684.642 245.322 659.755 236.66 655.708C235.327 655 233.995 655 232.662 655C226.664 655 222 661.778 222 661.778C222 661.778 224.665 663.801 227.997 667.14C241.991 678.673 274.642 706.291 280.639 712.361C319.954 750.703 330.616 775.691 332.615 790.563C334.614 803.31 329.283 808.773 329.283 808.773C329.283 808.773 341.278 812.111 352.605 793.193C357.27 785.1 357.936 778.423 355.937 772.353Z" fill="#98A2F4"/>
<path fill-rule="evenodd" clip-rule="evenodd" d="M678.04 492.776C676.682 466.284 655.746 406.574 641.557 411.261C627.37 416.05 637.504 432.353 621.966 436.429C606.428 440.505 585.486 462.921 570.624 456.094C563.194 452.732 560.492 445.192 559.14 439.078C549.007 458.132 534.145 476.473 513.203 491.35C461.862 527.421 468.617 529.458 448.351 561.351C441.596 571.541 419.978 583.768 423.356 601.396C424.707 608.223 425.382 615.661 425.382 623.813C437.543 632.576 456.458 637.365 485.506 631.251C558.465 616.374 651.011 559.314 651.011 559.314C651.011 559.314 651.69 560.638 665.874 561.963C680.068 563.389 680.068 519.269 678.04 492.776Z" fill="#9AF4DC"/>
<path fill-rule="evenodd" clip-rule="evenodd" d="M116.47 638.956C132.664 626.78 153.581 623.432 190.691 642.406C227.802 661.279 281.78 710.692 304.722 736.363C327.663 762.033 341.833 786.385 339.808 795.821C337.784 805.359 315.517 829 315.517 829C315.517 829 320.916 787.704 287.179 751.176C256.816 718.099 175.172 651.132 149.533 647.073C119.844 642.406 105 659.249 105 659.249C105 659.249 107.024 645.754 116.47 638.956Z" fill="#E2603D"/>
<path fill-rule="evenodd" clip-rule="evenodd" d="M120.778 708.427C166.028 740.117 191.692 745.584 216.007 769.174C240.32 792.764 245.723 813.621 265.984 825.77C286.246 837.919 304.481 835.287 314.612 826.479C327.444 815.038 319.34 798.839 304.481 771.199C273.414 712.477 180.886 645.655 145.766 640.289C111.322 634.923 105.243 647.073 101.867 662.563C97.8144 678.762 108.62 699.619 120.778 708.427Z" fill="white"/>
<path fill-rule="evenodd" clip-rule="evenodd" d="M601.493 74.3363C587.931 73.0126 538.433 75.6599 514.701 81.1582C480.798 89.3038 442.826 91.3401 405.532 100.097C354 112.315 263.139 148.257 201.435 188.272C139.732 228.389 98.3703 306.383 98.3703 306.383C67.8569 358.616 75.9938 414.922 118.034 446.079C151.259 470.516 229.915 457.687 265.852 446.079C273.989 443.432 281.447 439.359 288.906 433.861C297.721 422.355 308.57 410.85 320.096 399.955C323.487 395.271 324.843 391.809 324.843 391.809C324.843 391.809 326.199 391.809 328.233 391.809C332.98 391.809 342.473 389.773 353.322 379.591C416.382 321.249 584.541 349.758 584.541 349.758C584.541 349.758 583.863 323.998 582.507 315.852C580.473 304.347 573.693 269.015 573.693 269.015L589.965 271.052C589.965 271.052 601.493 278.586 622.512 262.295C663.196 231.036 695.068 212.709 702.527 166.585C712.693 102.846 669.301 82.4818 601.493 74.3363Z" fill="#98A2F4"/>
<path fill-rule="evenodd" clip-rule="evenodd" d="M320 400C308.173 411.246 297.043 423.123 288 435C302.609 423.859 313.739 409.144 320 400Z" fill="#9ECBE3"/>
<path fill-rule="evenodd" clip-rule="evenodd" d="M513.565 83.4635C513.565 83.4635 503.441 58.3834 477.792 62.445C452.144 66.5065 441.344 75.9496 421.095 76.6604C400.845 77.3712 334.699 79.4019 309.725 91.5866C284.752 103.67 278.678 123.977 248.979 132.811C219.281 141.645 186.882 138.904 167.308 188.252C147.734 237.701 172.708 279.637 181.482 300.553C192.282 326.954 207.806 345.231 240.879 339.849C273.277 335.077 323.9 396 323.9 396L346.849 388.588C363.723 383.105 368.447 362.188 355.623 350.003C338.074 333.757 316.476 310.707 301.627 286.44C271.928 238.31 269.227 182.159 271.252 174.747C284.077 128.75 328.624 128.039 344.824 127.43C361.023 126.719 364.398 126.008 364.398 126.008C364.398 126.008 339.424 131.491 355.623 195.765C371.823 260.04 410.296 335.787 430.545 347.972C450.793 360.157 478.467 352.034 482.517 351.323C564.863 341.169 577.012 381.785 582.411 379.043C669.485 331.726 624.259 261.36 624.259 261.36C624.259 261.36 589.836 294.563 532.465 250.495C508.165 231.609 475.767 198.405 475.767 127.43C476.442 86.1035 513.565 83.4635 513.565 83.4635Z" fill="#3844E5"/>
<path fill-rule="evenodd" clip-rule="evenodd" d="M285.861 362.997C285.861 362.997 291.931 354.223 300.023 352.206C308.116 350.189 312.837 350.189 315.535 356.24C318.233 362.291 315.535 365.619 315.535 365.619C315.535 365.619 319.582 359.568 323.628 369.047C327.675 378.426 321.605 381.149 321.605 381.149C321.605 381.149 327 380.443 327 389.216C327 397.889 320.256 401.923 320.256 401.923C320.256 401.923 328.349 405.351 312.838 420.075C302.721 430.159 269 447 269 447C269 447 285.186 416.747 283.837 385.182C283.837 371.669 285.861 362.997 285.861 362.997Z" fill="#E897A3"/>
<mask id="mask0" mask-type="alpha" maskUnits="userSpaceOnUse" x="99" y="637" width="220" height="196">
<path fill-rule="evenodd" clip-rule="evenodd" d="M119.44 707.043C164.492 738.817 190.045 744.298 214.253 767.951C238.46 791.603 243.84 812.514 264.012 824.696C284.185 836.877 302.341 834.238 312.427 825.406C325.203 813.935 317.134 797.694 302.341 769.981C271.409 711.104 179.286 644.106 144.319 638.726C110.025 633.346 103.973 645.527 100.612 661.058C96.5769 677.3 107.336 698.212 119.44 707.043Z" fill="white"/>
</mask>
<g mask="url(#mask0)">
<path d="M138.267 811.905L259.977 655.678" stroke="#45A0D4" stroke-width="1.61249"/>
<path d="M153.06 820.635L275.444 664.408" stroke="#45A0D4" stroke-width="1.61249"/>
<path d="M168.527 830.177L290.237 673.95" stroke="#45A0D4" stroke-width="1.61249"/>
<path d="M183.321 838.907L305.703 682.68" stroke="#45A0D4" stroke-width="1.61249"/>
<path d="M198.786 848.45L320.497 692.121" stroke="#45A0D4" stroke-width="1.61249"/>
<path d="M213.581 857.18L335.963 700.953" stroke="#45A0D4" stroke-width="1.61249"/>
<path d="M229.046 866.722L350.757 709.784" stroke="#45A0D4" stroke-width="1.61249"/>
<path d="M243.84 875.452L366.222 719.225" stroke="#45A0D4" stroke-width="1.61249"/>
<path d="M259.305 884.283L381.016 728.056" stroke="#45A0D4" stroke-width="1.61249"/>
<path d="M274.1 893.724L396.482 737.497" stroke="#45A0D4" stroke-width="1.61249"/>
<path d="M-13.0294 721.255L109.353 565.028" stroke="#45A0D4" stroke-width="1.61249"/>
<path d="M1.76404 730.087L124.147 573.758" stroke="#45A0D4" stroke-width="1.61249"/>
<path d="M17.2306 739.527L139.613 583.3" stroke="#45A0D4" stroke-width="1.61249"/>
<path d="M32.0241 748.257L154.407 592.03" stroke="#45A0D4" stroke-width="1.61249"/>
<path d="M47.4897 757.799L169.872 600.862" stroke="#45A0D4" stroke-width="1.61249"/>
<path d="M62.2822 766.529L184.665 610.302" stroke="#45A0D4" stroke-width="1.61249"/>
<path d="M77.7498 776.071L200.132 619.134" stroke="#45A0D4" stroke-width="1.61249"/>
<path d="M92.5413 784.801L214.924 628.574" stroke="#45A0D4" stroke-width="1.61249"/>
<path d="M108.009 793.633L230.391 637.406" stroke="#45A0D4" stroke-width="1.61249"/>
<path d="M122.801 803.074L245.184 646.847" stroke="#45A0D4" stroke-width="1.61249"/>
</g>
<path d="M702 550L666 565" stroke="#45A0D4" stroke-width="1.61249"/>
<path d="M702 560L667 573" stroke="#45A0D4" stroke-width="1.61249"/>
<path d="M655 549.446C655 549.446 657.073 554.882 659.146 545.419C661.219 536.057 663.292 497.099 655 467" stroke="#660000" stroke-width="1.61249" stroke-linejoin="round"/>
<path d="M653 457C653 457 651.707 453.25 648.495 447.625C645.929 443.219 644 442 644 442" stroke="#660000" stroke-width="1.61249" stroke-linejoin="round"/>
<path fill-rule="evenodd" clip-rule="evenodd" d="M515.175 83.081C515.175 83.081 505.024 57.9473 479.309 62.0176C453.594 66.0878 442.767 75.5511 422.465 76.2634C402.163 76.9757 335.845 79.0108 310.806 91.2215C285.768 103.33 279.678 123.682 249.902 132.534C220.127 141.387 187.644 138.64 168.019 188.093C148.395 237.648 173.433 279.673 182.231 300.635C193.058 327.091 208.622 345.407 241.782 340.014C274.264 335.232 325.017 396.285 325.017 396.285L348.026 388.857C364.944 383.362 369.681 362.401 356.823 350.19C339.229 333.909 317.574 310.81 302.686 286.491C272.911 238.259 270.203 181.988 272.233 174.559C285.091 128.464 329.754 127.752 345.996 127.141C362.237 126.429 365.62 125.717 365.62 125.717C365.62 125.717 340.582 131.211 356.823 195.623C373.065 260.034 411.637 335.944 431.939 348.155C452.24 360.366 479.985 352.225 484.046 351.513C566.605 341.337 578.787 382.039 584.2 379.292C671.499 331.874 626.156 261.357 626.156 261.357C626.156 261.357 591.644 294.631 534.123 250.469C509.761 231.543 477.279 198.269 477.279 127.141C477.955 85.7267 515.175 83.081 515.175 83.081Z" fill="#0010F7"/>
<mask id="mask1" mask-type="alpha" maskUnits="userSpaceOnUse" x="160" y="61" width="478" height="336">
<path fill-rule="evenodd" clip-rule="evenodd" d="M515.175 83.081C515.175 83.081 505.024 57.9473 479.309 62.0176C453.594 66.0878 442.767 75.5511 422.465 76.2634C402.163 76.9757 335.845 79.0108 310.806 91.2215C285.768 103.33 279.678 123.682 249.902 132.534C220.127 141.387 187.644 138.64 168.019 188.093C148.395 237.648 173.433 279.673 182.231 300.635C193.058 327.091 208.622 345.407 241.782 340.014C274.264 335.232 325.017 396.285 325.017 396.285L348.026 388.857C364.944 383.362 369.681 362.401 356.823 350.19C339.229 333.909 317.574 310.81 302.686 286.491C272.911 238.259 270.203 181.988 272.233 174.559C285.091 128.464 329.754 127.752 345.996 127.141C362.237 126.429 365.62 125.717 365.62 125.717C365.62 125.717 340.582 131.211 356.823 195.623C373.065 260.034 411.637 335.944 431.939 348.155C452.24 360.366 479.985 352.225 484.046 351.513C566.605 341.337 578.787 382.039 584.2 379.292C671.499 331.874 626.156 261.357 626.156 261.357C626.156 261.357 591.644 294.631 534.123 250.469C509.761 231.543 477.279 198.269 477.279 127.141C477.955 85.7267 515.175 83.081 515.175 83.081Z" fill="white"/>
</mask>
<g mask="url(#mask1)">
<path d="M39.4437 -24.7801C47.5645 2.99921 8.9908 14.5994 17.1116 41.6664C25.2323 69.4457 64.4824 57.235 72.6022 85.1161C80.7229 112.895 42.1503 124.394 50.2711 152.173C58.3918 179.952 97.6409 167.742 105.762 195.623C113.882 223.402 75.3098 234.901 83.4295 262.069C91.5503 289.849 130.8 277.638 138.921 305.417C147.041 333.197 108.468 344.797 116.589 371.864C124.71 399.643 163.959 387.433 172.08 415.314C180.2 443.093 141.628 454.591 149.749 482.371C157.869 510.15 197.118 497.939 205.239 525.82C213.36 553.6 174.787 565.098 182.907 592.877C191.028 620.759 230.278 608.548 238.399 636.327" stroke="#9ECBE3" stroke-width="1.61249" stroke-linejoin="round"/>
<path d="M98.9947 -41.6716C107.115 -13.8923 68.5418 -2.39385 76.6626 24.7749C84.7833 52.5543 124.032 40.3436 132.153 68.1229C140.274 95.9022 101.701 107.401 109.822 135.282C117.943 163.061 157.192 150.85 165.313 178.63C173.433 206.409 134.861 218.009 142.981 245.076C151.101 272.856 190.351 260.645 198.472 288.526C206.592 316.305 168.019 327.804 176.14 354.972C184.261 382.752 223.51 370.541 231.631 398.32C239.751 426.1 201.179 437.598 209.299 465.479C217.42 493.259 256.669 481.048 264.79 508.827C272.911 536.607 234.338 548.207 242.458 575.986C250.579 603.765 289.829 591.555 297.95 619.334" stroke="#9ECBE3" stroke-width="1.61249" stroke-linejoin="round"/>
<path d="M158.546 -59.3771C166.665 -31.5978 128.093 -19.9976 136.214 7.06944C144.334 34.8488 183.583 22.7398 191.704 50.5192C199.825 78.2985 161.252 89.7969 169.373 117.576C177.494 145.457 216.743 133.247 224.864 161.026C232.984 188.805 194.412 200.304 202.532 227.472C210.652 255.252 249.902 243.041 258.023 270.82C266.143 298.6 227.57 310.2 235.691 337.267C243.812 365.046 283.061 352.937 291.182 380.717C299.302 408.496 260.73 419.994 268.85 447.774C276.971 475.655 316.22 463.444 324.341 491.223C332.462 519.003 293.888 530.501 302.009 558.281C310.13 586.162 349.38 573.951 357.5 601.73" stroke="#9ECBE3" stroke-width="1.61249" stroke-linejoin="round"/>
<path d="M218.097 -76.2685C226.217 -48.4892 187.645 -36.9908 195.766 -9.82202C203.885 17.9573 243.135 5.74661 251.256 33.5259C259.377 61.3053 220.803 72.9054 228.924 100.685C237.045 128.464 276.295 116.253 284.415 144.033C292.535 171.812 253.963 183.412 262.084 210.479C270.204 238.259 309.453 226.15 317.574 253.929C325.695 281.708 287.122 293.207 295.242 320.375C303.363 348.155 342.613 335.944 350.734 363.723C358.853 391.503 320.281 403.103 328.401 430.882C336.522 458.662 375.771 446.451 383.892 474.23C392.013 502.01 353.44 513.61 361.561 541.389C369.682 569.168 408.931 556.958 417.052 584.737" stroke="#9ECBE3" stroke-width="1.61249" stroke-linejoin="round"/>
<path d="M277.648 -93.2618C285.768 -65.4824 247.196 -53.8823 255.317 -26.8152C263.436 0.964096 302.686 -11.2466 310.807 16.6345C318.928 44.4138 280.354 55.9122 288.475 83.6915C296.596 111.471 335.846 99.3619 343.966 127.141C352.086 154.921 313.514 166.419 321.634 193.588C329.755 221.367 369.004 209.156 377.125 236.936C385.246 264.715 346.673 276.315 354.793 303.382C362.914 331.162 402.164 318.951 410.285 346.832C418.404 374.611 379.832 386.11 387.952 413.889C396.073 441.668 435.322 429.458 443.443 457.339C451.564 485.118 412.991 496.617 421.112 524.396C429.233 552.277 468.482 540.066 476.603 567.846" stroke="#9ECBE3" stroke-width="1.61249" stroke-linejoin="round"/>
<path d="M337.875 -110.866C345.996 -83.0862 307.423 -71.5878 315.543 -44.419C323.664 -16.6397 362.914 -28.8503 371.035 -1.07102C379.154 26.8101 340.582 38.3085 348.702 66.0878C356.823 93.8671 396.072 81.6564 404.193 109.436C412.314 137.317 373.741 148.815 381.862 175.882C389.983 203.763 429.232 191.553 437.352 219.332C445.473 247.111 406.901 258.61 415.02 285.779C423.141 313.558 462.391 301.347 470.512 329.126C478.632 357.008 440.059 368.506 448.18 396.285C456.301 424.065 495.55 411.854 503.67 439.633C511.791 467.514 473.219 479.013 481.339 506.792C489.459 534.571 528.709 522.361 536.83 550.242" stroke="#9ECBE3" stroke-width="1.61249" stroke-linejoin="round"/>
<path d="M397.427 -127.859C405.548 -99.9776 366.975 -88.4792 375.096 -61.4122C383.217 -33.5311 422.466 -45.7418 430.586 -17.9625C438.707 9.81685 400.135 21.3152 408.254 49.0946C416.375 76.9757 455.625 64.765 463.745 92.5443C471.866 120.324 433.293 131.822 441.414 158.991C449.535 186.77 488.784 174.559 496.904 202.339C505.025 230.22 466.453 241.718 474.573 268.785C482.693 296.565 521.943 284.456 530.064 312.235C538.185 340.014 499.611 351.513 507.732 379.292C515.853 407.173 555.103 394.962 563.222 422.742C571.343 450.521 532.771 462.02 540.891 489.901C549.012 517.68 588.261 505.469 596.382 533.249" stroke="#9ECBE3" stroke-width="1.61249" stroke-linejoin="round"/>
<path d="M456.978 -144.75C465.099 -116.971 426.526 -105.472 434.647 -78.3037C442.768 -50.5243 482.017 -62.735 490.138 -34.9557C498.258 -7.17637 459.685 4.42378 467.805 32.2031C475.926 59.9824 515.176 47.7717 523.296 75.5511C531.417 103.432 492.844 114.931 500.965 141.998C509.086 169.777 548.335 157.668 556.455 185.447C564.576 213.227 526.004 224.725 534.124 251.894C542.244 279.673 581.494 267.462 589.615 295.242C597.736 323.021 559.162 334.621 567.283 362.401C575.404 390.18 614.654 377.969 622.773 405.749C630.894 433.528 592.322 445.128 600.442 472.907C608.563 500.687 647.815 488.476 655.93 516.255" stroke="#9ECBE3" stroke-width="1.61249" stroke-linejoin="round"/>
<path d="M516.529 -162.456C524.65 -134.575 486.077 -123.076 494.197 -96.0092C502.318 -68.1281 541.568 -80.3388 549.688 -52.5594C557.808 -24.7801 519.236 -13.2817 527.356 14.5994C535.477 42.3787 574.726 30.168 582.847 57.9473C590.968 85.7267 552.395 97.2251 560.516 124.394C568.636 152.173 607.886 139.962 616.006 167.742C624.127 195.623 585.554 207.121 593.674 234.188C601.795 262.069 641.045 249.859 649.166 277.638C657.291 305.417 618.713 316.916 626.834 344.797C634.955 372.576 674.201 360.366 682.325 388.145C690.44 415.924 651.867 427.423 659.992 455.304C668.117 483.083 707.36 470.872 715.485 498.652" stroke="#9ECBE3" stroke-width="1.61249" stroke-linejoin="round"/>
<path d="M576.756 -179.347C584.877 -151.568 546.304 -140.069 554.425 -112.901C562.545 -85.1213 601.795 -97.332 609.916 -69.5527C618.037 -41.6716 579.463 -30.1732 587.584 -2.39386C595.704 25.3855 634.955 13.1748 643.074 40.9541C651.197 68.8352 612.622 80.3336 620.743 107.401C628.864 135.282 668.117 123.071 676.232 150.85C684.357 178.63 645.784 190.128 653.899 217.297C662.023 245.076 701.277 232.865 709.391 260.645C717.516 288.526 678.943 300.024 687.058 327.804C695.183 355.583 734.436 343.372 742.551 371.152C750.676 399.033 712.103 410.531 720.218 438.31C728.342 466.09 767.596 453.879 775.71 481.76" stroke="#9ECBE3" stroke-width="1.61249" stroke-linejoin="round"/>
</g>
<path fill-rule="evenodd" clip-rule="evenodd" d="M300.793 114.968C300.793 114.968 296.758 125.818 300.793 141.58C304.828 157.24 315.587 167.475 322.312 168.806C330.381 170.137 343.158 164.712 345.848 149.768C348.538 134.722 351.228 115.582 337.106 108.111C322.985 100.639 302.139 108.111 300.793 114.968Z" fill="#E897A3"/>
<path fill-rule="evenodd" clip-rule="evenodd" d="M299 115.203C299 115.203 305.785 90.3964 315.285 75.7332C326.141 59.664 327.499 82.3618 332.927 71.0129C338.355 59.664 347.854 40.1801 351.925 48.2147C355.997 56.2493 351.247 62.9783 358.711 55.6467C366.175 48.2147 367.531 42.8918 372.96 44.1974C381.103 46.9091 362.104 72.3185 364.139 79.0475C366.175 85.7765 372.96 74.3272 372.96 82.3618C372.96 92.405 345.819 134.587 345.819 131.875C345.14 121.229 341.069 113.797 338.355 127.858C336.998 133.281 330.891 111.788 315.963 111.186C300.357 109.78 299 115.203 299 115.203Z" fill="#E2603D"/>
<path fill-rule="evenodd" clip-rule="evenodd" d="M555.295 219.086C553.94 218.375 536.315 210.259 526.826 219.086C518.691 225.883 513.269 223.854 513.946 227.202C515.98 233.289 524.792 233.898 524.792 233.898C524.792 233.898 515.301 228.521 507.168 233.289C500.389 237.348 497 237.956 497 244.044C497 252.87 503.101 254.9 503.101 254.9C503.101 254.9 496.322 250.131 497.678 262.306C498.355 268.393 503.778 272.451 503.778 272.451C503.778 272.451 498.355 270.422 501.067 279.959C503.778 288.076 509.202 289.395 509.202 289.395C509.202 289.395 503.778 295.482 517.335 300.859C530.893 306.236 556.651 312.324 574.275 298.83C591.9 285.336 598 275.901 598 275.901C598 275.901 576.986 265.755 563.43 245.464C557.329 234.608 555.295 219.086 555.295 219.086Z" fill="#E897A3"/>
<path d="M530.89 226C530.89 226 532.241 230.95 525.486 232C518.73 232 514 230.05 514 230.05" stroke="#660000" stroke-width="1.61249" stroke-linejoin="round"/>
<path d="M247 665C247 665 280.214 670.289 322.918 718.19C348.676 747.43 347.998 762 347.998 762" stroke="#660000" stroke-width="1.61249" stroke-linejoin="round"/>
<path d="M518 472C493.809 493.472 462.225 522.403 448.113 537.827C422.577 564.036 428.625 587.524 428.625 597" stroke="#660000" stroke-width="1.61249" stroke-linejoin="round"/>
<path d="M546 446C546 446 540.783 452.122 531 461" stroke="#660000" stroke-width="1.61249" stroke-linejoin="round"/>
<path d="M236 567.93C236 567.93 240.08 582.44 255.04 579.642C273.399 576.221 287 550 287 550" stroke="#660000" stroke-width="1.61249" stroke-linejoin="round"/>
<path d="M130 300.198C130 300.198 147.432 290.461 171.568 297.641C184.977 301.575 189 312 189 312" stroke="#660000" stroke-width="1.61249" stroke-linejoin="round"/>
<path d="M592 136C592 136 572.723 138.786 564.461 163.552C558.265 181.403 560.33 191 560.33 191" stroke="#660000" stroke-width="1.61249" stroke-linejoin="round"/>
<path d="M561.25 138C561.25 138 556.75 145.4 556 156.7C556 169.3 562 176 562 176" stroke="#660000" stroke-width="1.61249" stroke-linejoin="round"/>
<path d="M528 66.1753C634.891 40.5492 724.302 87.1421 714.223 149.232C706.828 193.799 675.228 210.613 634.891 241" stroke="black" stroke-width="1.61249" stroke-linejoin="round"/>
<path d="M200 -8C200 -8 149.285 53.9255 129 91" stroke="black" stroke-width="1.61249" stroke-linejoin="round"/>
<path d="M473 755C473 755 677.757 721.162 812 560" stroke="black" stroke-width="1.61249" stroke-linejoin="round"/>
<path d="M67 547C67 547 43.7366 565.796 41 606" stroke="black" stroke-width="1.61249" stroke-linejoin="round"/>
<path d="M42 648C42 648 49.4805 718.385 110 764" stroke="black" stroke-width="1.61249" stroke-linejoin="round"/>
<path d="M434.344 617C434.344 617 444.499 636.684 430.96 678.907C413.357 736.632 368 776 368 776" stroke="#660000" stroke-width="1.61249" stroke-linejoin="round"/>
<path d="M72 265C80.6452 248.26 89.9552 230.713 99.2661 213.973C132.518 154.878 168.429 100.422 207 50" stroke="black" stroke-width="1.61249" stroke-linejoin="round"/>
<path fill-rule="evenodd" clip-rule="evenodd" d="M34 353L67 323.7L37.3677 305L34 353Z" fill="#E2603D"/>
<path d="M64 300L49 330" stroke="black" stroke-width="1.61249" stroke-linejoin="round"/>
<path d="M59 284L44 319" stroke="black" stroke-width="1.61249" stroke-linejoin="round"/>
</svg>
